<svg viewBox="0 0 1024 768" fill="none" xmlns="http://www.w3.org/2000/svg" role="img" aria-label="Line drawing of a tow truck on an Atlanta street with the city skyline behind it">
  <g stroke="#0a0a0a" stroke-width="2.5" stroke-linecap="round" stroke-linejoin="round">
    <!-- bird -->
    <path d="M210 96 q14 -14 28 0 q14 -14 28 0" stroke-width="3"/>

    <!-- skyline: left tower -->
    <rect x="120" y="300" width="80" height="280"/>
    <path d="M128 316 h64 M128 340 h64 M128 364 h64 M128 388 h64 M128 412 h64 M128 436 h64 M128 460 h64 M128 484 h64 M128 508 h64 M128 532 h64 M128 556 h64"/>
    <!-- mid-rise -->
    <rect x="220" y="380" width="64" height="200"/>
    <path d="M230 396 h44 M230 420 h44 M230 444 h44 M230 468 h44 M230 492 h44 M230 516 h44 M230 540 h44"/>
    <!-- spire tower (Bank of America Plaza silhouette) -->
    <rect x="430" y="280" width="96" height="300"/>
    <path d="M430 280 L478 180 L526 280"/>
    <path d="M478 180 V120"/>
    <path d="M442 296 h72 M442 322 h72 M442 348 h72 M442 374 h72 M442 400 h72 M442 426 h72 M442 452 h72 M442 478 h72 M442 504 h72 M442 530 h72 M442 556 h72"/>
    <!-- stepped tower -->
    <path d="M580 580 V340 h36 v-40 h36 v40 h36 v240"/>
    <path d="M590 360 h88 M590 388 h88 M590 416 h88 M590 444 h88 M590 472 h88 M590 500 h88 M590 528 h88 M590 556 h88"/>
    <!-- round-top tower (191 Peachtree-ish) -->
    <rect x="740" y="320" width="84" height="260"/>
    <path d="M740 320 q42 -56 84 0"/>
    <path d="M752 340 h60 M752 366 h60 M752 392 h60 M752 418 h60 M752 444 h60 M752 470 h60 M752 496 h60 M752 522 h60 M752 548 h60"/>
    <!-- small block right -->
    <rect x="860" y="430" width="56" height="150"/>
    <path d="M870 448 h36 M870 472 h36 M870 496 h36 M870 520 h36 M870 544 h36"/>

    <!-- street -->
    <path d="M60 580 H964"/>
    <path d="M140 640 H924" stroke-dasharray="28 22"/>
    <path d="M60 700 H964"/>

    <!-- trees -->
    <path d="M96 580 v-44"/>
    <path d="M96 536 c-30 0 -40 -36 -16 -48 c-2 -26 34 -34 44 -12 c26 -8 38 28 14 40 c6 18 -18 30 -42 20 z"/>
    <path d="M928 580 v-50"/>
    <path d="M928 530 c-34 0 -44 -40 -18 -52 c-2 -28 38 -38 48 -14 c28 -8 42 32 16 44 c8 20 -20 34 -46 22 z"/>

    <!-- tow truck -->
    <!-- flatbed -->
    <path d="M330 660 h210 l14 -34 h-224 z"/>
    <!-- cab -->
    <path d="M554 660 h96 v-52 h-44 l-22 -34 h-50 l6 52"/>
    <path d="M590 574 l16 26 h38" />
    <!-- window -->
    <path d="M596 586 l12 18 h28 v-18 z"/>
    <!-- boom -->
    <path d="M350 626 L300 560 h-20"/>
    <path d="M300 560 v36" stroke-dasharray="6 8"/>
    <path d="M294 602 a8 8 0 1 0 12 0 a8 8 0 1 0 -12 0"/>
    <!-- wheels -->
    <circle cx="392" cy="676" r="22"/>
    <circle cx="392" cy="676" r="8"/>
    <circle cx="610" cy="676" r="22"/>
    <circle cx="610" cy="676" r="8"/>
    <!-- ground shadow -->
    <path d="M320 706 h350" stroke-width="3"/>
  </g>
</svg>
